<svg width="100" height="100" viewBox="0 0 100 100" fill="none" xmlns="http://www.w3.org/2000/svg">
<path d="M50 100C22.4321 100 0 77.5631 0 50.0106C0 22.4368 22.4321 0 50 0C77.5679 0 100 22.4368 100 50.0106C99.9788 77.5631 77.5467 100 50 100ZM50 6.36807C25.9338 6.36807 6.36672 25.9393 6.36672 50.0106C6.36672 74.0607 25.9338 93.6532 50 93.6532C74.0662 93.6532 93.6333 74.0819 93.6333 50.0106C93.6121 25.9393 74.045 6.36807 50 6.36807Z" fill="#111111"/>
<path d="M57.64 68.287C57.2368 67.8837 56.8124 67.5016 56.3455 67.162C56.1545 67.0346 55.9847 66.886 55.8361 66.7162C54.3293 68.1172 52.7589 69.3059 51.3794 69.8366C50.4881 70.1762 49.4906 70.1762 48.5993 69.8366C47.1137 69.2635 45.4584 67.9474 44.1426 66.7162C43.8667 67.0771 43.5271 67.4167 43.1451 67.6714C41.9991 68.4993 40.8107 69.7729 39.8769 71.1951C41.0865 73.7423 42.8268 76.6292 44.9278 78.7307C46.3709 80.1741 47.9626 81.2354 49.7028 81.6175C49.8938 81.6388 50.0849 81.6388 50.2759 81.6175C54.4991 80.726 57.9584 75.6528 60.0169 71.3862C59.359 70.2611 58.5526 69.221 57.64 68.287Z" fill="#111111"/>
<path d="M65.6834 70.0914C67.8693 66.7163 69.7157 61.3671 68.2937 56.2939C66.9992 55.7844 65.7683 55.1264 64.6223 54.341C64.41 54.8929 64.1766 55.4448 63.9007 56.0179C62.9881 57.9283 61.6724 60.0086 60.1231 62.0251C59.4864 62.8318 58.7649 63.7021 57.9797 64.5724C58.0433 64.636 58.107 64.6785 58.1707 64.721C58.7437 65.1455 59.2954 65.6337 59.8048 66.1432C60.9508 67.3106 61.9482 68.6055 62.7547 70.0065C62.8396 70.1338 62.9245 70.2612 63.0306 70.3673C63.7097 71.0466 64.7921 71.0466 65.4712 70.3673C65.5561 70.2824 65.6197 70.1975 65.6834 70.0914Z" fill="#111111"/>
<path d="M41.3411 65.1879C41.5958 64.9969 41.7868 64.7634 41.9142 64.4662C40.1951 62.577 38.6671 60.5393 37.3513 58.3741C36.5661 57.0793 35.887 55.742 35.3352 54.341C34.0619 55.2113 32.6824 55.933 31.2181 56.4637C29.6052 61.6218 31.4515 67.1196 33.6799 70.6008C33.7435 70.7069 33.8284 70.8131 33.9133 70.898C34.5924 71.5772 35.696 71.5772 36.3751 70.898C36.4812 70.7919 36.5873 70.6645 36.651 70.5371C37.6909 68.7753 39.3462 66.6314 41.3411 65.1879Z" fill="#111111"/>
<path d="M50.2758 66.9922C53.1621 65.8671 60.1655 58.5014 62.0967 52.3244C61.8845 52.1333 61.6723 51.9211 61.46 51.7088C59.8896 50.138 58.5526 48.3549 57.449 46.4233C57.0458 47.2511 56.6426 48.0153 56.2393 48.7158C54.7962 51.2418 53.3531 52.9187 51.8463 53.8315C50.6791 54.5108 49.2359 54.5108 48.0899 53.8315C47.5169 53.4706 46.9651 53.0461 46.4982 52.5579C45.1824 51.2418 43.8667 49.2252 42.5084 46.4657C42.2113 46.9964 41.893 47.5059 41.5534 48.0365C40.5135 49.6073 39.2826 51.0508 37.9032 52.3244C39.1341 56.2726 42.4448 60.709 45.4159 63.6808C47.0925 65.3577 48.6629 66.5889 49.724 66.9922C49.8938 67.0346 50.0848 67.0346 50.2758 66.9922Z" fill="#111111"/>
<path d="M61.3116 36.6165C60.8023 38.1448 60.1232 40.1189 59.2955 42.178C59.2106 42.3902 59.1257 42.6025 59.0408 42.7935C60.1232 45.3195 61.6512 47.612 63.6037 49.5437C65.4712 51.4117 67.7208 52.94 70.2675 53.7678C71.1801 54.065 72.1563 53.5768 72.4534 52.664C72.4958 52.5579 72.5171 52.4518 72.5171 52.3244C72.9415 48.8008 73.366 43.1968 72.3048 39.567L61.3116 36.6165Z" fill="#111111"/>
<path d="M40.2376 41.1803C39.5797 39.4821 39.0279 37.8901 38.6247 36.5953L27.6527 39.5246C26.5916 43.1756 27.016 48.7795 27.4405 52.3032C27.4829 52.6853 27.6527 53.0461 27.9286 53.3221C28.3743 53.7678 29.0322 53.9376 29.6476 53.7466C34.9532 52.0485 38.9855 47.2936 40.8955 42.8147C40.6833 42.3053 40.4498 41.7534 40.2376 41.1803Z" fill="#111111"/>
<path d="M48.6418 50.3927C48.9389 50.7111 49.2784 50.9871 49.6604 51.2206C49.8514 51.3267 50.0849 51.3267 50.2759 51.2206C54.7963 48.5035 59.2742 32.9017 59.2742 32.9017L74.9576 37.0834C76.4219 37.4655 77.6953 36.0858 77.1222 34.7697C75.8065 31.8192 73.9601 29.1446 71.6681 26.8733C66.3413 21.5453 58.7012 18.3825 50.2759 18.3825C38.3065 18.3825 27.4618 24.7718 22.8778 34.706C22.5806 35.3428 22.7292 36.107 23.2385 36.5952C23.7267 37.0622 24.4058 37.2533 25.0637 37.0622L40.6621 32.8805C40.6621 32.9017 44.5034 46.2535 48.6418 50.3927Z" fill="#111111"/>
</svg>
